Coordinates
version=1
nRows=13
nColumns=40
inDegrees=yes

Units are S.I. units (second, meters, Newtons, ...)
Angles are in degrees.

endheader
time	pelvis_tilt	pelvis_list	pelvis_rotation	pelvis_tx	pelvis_ty	pelvis_tz	hip_flexion_r	hip_adduction_r	hip_rotation_r	knee_angle_r	knee_angle_r_beta	ankle_angle_r	subtalar_angle_r	mtp_angle_r	hip_flexion_l	hip_adduction_l	hip_rotation_l	knee_angle_l	knee_angle_l_beta	ankle_angle_l	subtalar_angle_l	mtp_angle_l	lumbar_extension	lumbar_bending	lumbar_rotation	arm_flex_r	arm_add_r	arm_rot_r	elbow_flex_r	pro_sup_r	wrist_flex_r	wrist_dev_r	arm_flex_l	arm_add_l	arm_rot_l	elbow_flex_l	pro_sup_l	wrist_flex_l	wrist_dev_l
     50.81000000	     -2.29678242	     -6.62251834	     -5.19901837	      0.91548678	      0.92310773	      0.53688956	     13.23320866	      7.02366736	     -9.85707381	     23.84402253	     23.84402253	     14.10215848	     -4.24800031	     -0.55478594	     18.66834280	    -17.24950203	     -1.59215934	     66.66686417	     66.66686417	      1.50475289	    -19.22870616	     15.23653082	    -11.26133494	      7.33924895	      0.60830433	     10.37626189	    -17.82901010	    -17.79762700	     34.16954824	     45.48846739	      0.00000000	      0.00000000	     14.55931979	    -11.00307252	     -5.82643448	     37.13092672	     45.55298570	      0.00000000	      0.00000000
     50.82971429	     -1.88996355	     -6.66817829	     -4.39011994	      0.91418951	      0.92117289	      0.53870249	     13.15910528	      7.19566550	     -9.60349764	     25.09651144	     25.09651144	     14.94128550	     -6.04598767	     -0.56431942	     20.16698046	    -17.41599539	     -0.84192804	     67.60895705	     67.60895705	      4.89501797	    -19.40291384	     19.12641881	    -11.50858272	      7.12531394	      0.51773084	     12.65705814	    -17.74588743	    -17.78675463	     34.31388100	     45.54223685	      0.00000000	      0.00000000	     13.05268798	    -10.32279273	     -5.11723788	     33.71641807	     45.52572057	      0.00000000	      0.00000000
     50.84942857	     -1.47350046	     -6.72271509	     -3.54031518	      0.91293256	      0.91925974	      0.54051561	     12.99578973	      7.36931614	     -9.52917218	     26.22674856	     26.22674856	     15.71742430	     -7.58561834	     -0.70682092	     21.52903770	    -17.65464223	     -0.26419672	     68.08395489	     68.08395489	      7.22645516	    -19.52898701	     19.83414734	    -11.81787272	      6.92194189	      0.24085821	     14.81659343	    -17.52657614	    -17.84515750	     35.53150792	     45.52017125	      0.00000000	      0.00000000	     10.87352126	     -9.82802950	     -4.73212657	     31.72809281	     45.46219824	      0.00000000	      0.00000000
     50.86914286	     -0.93166828	     -6.81480869	     -2.68061542	      0.91187516	      0.91788241	      0.54203818	     12.44138787	      7.53503515	     -9.72832072	     26.93669126	     26.93669126	     16.48067554	     -8.44402083	     -0.91034554	     22.61160057	    -17.86398115	      0.20738426	     68.05943985	     68.05943985	      9.22788713	    -19.60713658	     19.86406935	    -12.30722885	      6.77414907	      0.82997950	     16.44230084	    -18.02332853	    -17.92029311	     36.28479322	     45.51009394	      0.00000000	      0.00000000	      8.87743563	     -8.89699230	     -4.48660315	     30.53454688	     45.40213212	      0.00000000	      0.00000000
     50.88885714	     -0.66893858	     -6.80841149	     -1.74649362	      0.91045384	      0.91636387	      0.54324073	     12.26044236	      7.74064299	     -9.51478927	     27.65639811	     27.65639811	     17.14983633	    -10.22214677	     -0.34413472	     24.19983058	    -17.64874812	      1.00809499	     67.94075801	     67.94075801	     12.43694163	    -19.64447737	     24.07933330	    -12.44761375	      6.57370120	      0.15407134	     19.00637770	    -17.51498239	    -17.84496922	     37.56142576	     45.49516811	      0.00000000	      0.00000000	      7.25161744	     -8.70235815	     -3.34854375	     26.76316681	     45.27169033	      0.00000000	      0.00000000
     50.90857143	     -0.45242568	     -6.71011974	     -0.82105248	      0.90909761	      0.91528014	      0.54400158	     11.98549429	      7.69890461	     -9.78697736	     28.14428597	     28.14428597	     17.71316927	    -11.09305817	     -0.27641129	     25.51572639	    -17.34296937	      1.47809059	     67.02182190	     67.02182190	     13.97821153	    -19.67010630	     24.21967166	    -12.57769165	      6.29294803	      0.10215672	     20.97424680	    -17.52012266	    -17.90320836	     38.90427640	     45.46743374	      0.00000000	      0.00000000	      5.20728526	     -8.27410286	     -2.92404894	     25.24163397	     45.18974881	      0.00000000	      0.00000000
     50.92828571	     -0.26778842	     -6.63601593	      0.11743984	      0.90773142	      0.91477537	      0.54435677	     11.53887841	      7.68670420	    -10.11769213	     28.23030117	     28.23030117	     18.14194609	    -11.73481137	     -0.11857560	     26.70566479	    -16.91979973	      1.92054723	     65.54421297	     65.54421297	     15.24146068	    -19.67147870	     24.38149191	    -12.71663532	      6.08440375	      0.16617785	     22.90612340	    -17.65044279	    -17.93581936	     40.34962069	     45.43378902	      0.00000000	      0.00000000	      3.24861696	     -7.88515345	     -2.51998362	     24.07011256	     45.10305164	      0.00000000	      0.00000000
     50.94800000	     -0.25311460	     -6.49055624	      1.04107239	      0.90624612	      0.91467310	      0.54426571	     11.13510612	      7.55546023	    -10.57756432	     28.03528638	     28.03528638	     18.42376065	    -12.11091878	     -0.02588485	     27.87674962	    -16.28822208	      2.27838889	     63.49663219	     63.49663219	     16.05625132	    -19.66496780	     24.26061880	    -12.68092049	      5.80577020	      0.68264925	     24.58744289	    -18.20861646	    -17.99860519	     41.46675610	     45.40960536	      0.00000000	      0.00000000	      1.49176718	     -7.48269269	     -2.33613051	     23.40125577	     45.04319237	      0.00000000	      0.00000000
     50.96771429	     -0.27530769	     -6.32860767	      1.99718431	      0.90470088	      0.91513697	      0.54373952	     10.60797539	      7.39386843	    -11.12853054	     27.52506151	     27.52506151	     18.59818495	    -12.30587755	      0.19536771	     28.87156487	    -15.50937728	      2.61851899	     60.89256342	     60.89256342	     16.48509572	    -19.64219215	     24.07607725	    -12.67001966	      5.58507629	      0.37035681	     26.56602824	    -18.06842224	    -17.89692605	     43.75152678	     45.33702202	      0.00000000	      0.00000000	     -0.66508154	     -7.34393043	     -1.90968762	     22.86546237	     44.93113919	      0.00000000	      0.00000000
     50.98742857	     -0.50750820	     -6.13432674	      2.91897179	      0.90299123	      0.91575334	      0.54287450	     10.21726244	      7.13871615	    -11.83125878	     26.84887916	     26.84887916	     18.69299439	    -12.16810855	      0.32117038	     29.85523984	    -14.61834726	      2.89302590	     57.78256914	     57.78256914	     16.27398187	    -19.60273354	     23.10381091	    -12.51434333	      5.34457178	      0.48475150	     27.87275584	    -18.45917086	    -17.39685699	     47.04434500	     45.21969381	      0.00000000	      0.00000000	     -3.02607477	     -7.33812343	     -0.95124354	     23.85657775	     44.70976681	      0.00000000	      0.00000000
     51.00714286	     -0.85230287	     -5.85620177	      3.76339527	      0.90109030	      0.91676573	      0.54171106	      9.84763636	      6.82060986	    -12.38452589	     25.95158900	     25.95158900	     18.59648989	    -12.15487142	      0.51326099	     30.70268310	    -13.56291404	      3.10607614	     54.25283979	     54.25283979	     16.01301822	    -19.53651177	     23.04328468	    -12.20600849	      4.95446236	      1.06725610	     29.60272620	    -19.16264419	    -17.40142498	     48.24887206	     45.19039851	      0.00000000	      0.00000000	     -4.51966696	     -7.17899943	     -0.78163834	     23.61451974	     44.65344815	      0.00000000	      0.00000000
     51.02685714	     -1.09519080	     -5.62558244	      4.61215927	      0.89932225	      0.91815134	      0.54031841	      9.14371633	      6.51694353	    -13.24025045	     24.67086935	     24.67086935	     18.23210904	    -11.63485813	     -0.18385978	     31.08512846	    -12.61855553	      3.18556997	     50.14092781	     50.14092781	     14.46466367	    -19.43212861	     20.11688207	    -12.17975200	      4.72484420	      1.30305421	     30.47225008	    -19.91455597	    -15.95681809	     53.02188431	     45.15038240	      0.00000000	      0.00000000	     -7.43011786	     -8.44464010	      7.40978839	     26.75944606	     43.58889532	      0.00000000	      0.00000000
     51.04657143	     -1.51596382	     -5.36363337	      5.38067462	      0.89737875	      0.91940590	      0.53867691	      8.67182160	      6.14892253	    -14.07574563	     23.48633750	     23.48633750	     18.05632958	    -10.96999972	     -0.24133401	     31.45870818	    -11.58846570	      3.31586453	     45.82161006	     45.82161006	     12.92142453	    -19.26158924	     18.01636825	    -11.94606197	      4.40577369	      1.41114735	     32.22376740	    -20.22239494	    -15.82605287	     55.71903747	     45.08773848	      0.00000000	      0.00000000	     -9.31609203	     -8.45745573	      7.46314834	     27.58245275	     43.64893497	      0.00000000	      0.00000000
